<svg xmlns="http://www.w3.org/2000/svg" width="255.854" height="255.824" viewBox="0 0 255.854 255.824">
  <g id="Group_187" data-name="Group 187" transform="translate(-288 -6269)">
    <ellipse id="Ellipse_88" data-name="Ellipse 88" cx="127.917" cy="127.912" rx="127.917" ry="127.912" transform="translate(288 6269)" fill="#0d1b4c"/>
    <path id="Path_167" data-name="Path 167" d="M1248.752,3988.719s-31.664,38.518-5.228,75.854,61.56,29.014,61.56,29.014,1.215-28.937-15.049-59.311S1248.752,3988.719,1248.752,3988.719Z" transform="translate(-761.251 2302.014)" fill="#fdf3f3"/>
    <g id="Group_186" data-name="Group 186" transform="translate(-35.488 -338.983)">
      <path id="Path_174" data-name="Path 174" d="M397.715,6691.518l54.4,104.657s19.9-80.012,19.187-78.583-5,78.583-5,78.583-38.577-1.071-45.006,0-26.075,2.144-26.075,2.144Z" transform="translate(3.603 2.687)" fill="#ff8387"/>
      <path id="Path_173" data-name="Path 173" d="M2,15A15,15,0,0,1,17,0H56.683a7.5,7.5,0,0,1,5.3,2.2l27.8,27.8a7.5,7.5,0,0,1,2.2,5.3v69.679a15,15,0,0,1-15,15H17a15,15,0,0,1-15-15Zm52.486,15,3.749-18.745L80.729,33.741,61.984,37.49A7.5,7.5,0,0,1,54.486,29.992Zm-15,16.87a5.623,5.623,0,1,1-5.623-5.623A5.623,5.623,0,0,1,39.49,46.862ZM33.034,58.424l9.972,6.643,13.9-13.909a1.874,1.874,0,0,1,2.167-.352l14.156,7.3V71.231a3.749,3.749,0,0,1-3.749,3.749H24.494a3.749,3.749,0,0,1-3.749-3.749V67.482S32.292,57.929,33.034,58.424Zm-8.54,24.054a3.749,3.749,0,1,0,0,7.5H69.482a3.749,3.749,0,0,0,0-7.5Zm0,15a3.749,3.749,0,1,0,0,7.5H46.988a3.749,3.749,0,1,0,0-7.5Z" transform="translate(388.5 6688)" fill="#fdf3f3" fill-rule="evenodd"/>
    </g>
  </g>
</svg>
